# xmcd CD database file
#
# Track frame offsets:
#	150
#	12624
#	22354
#	34154
#	46969
#	55978
#	68141
#	81990
#	95253
#	107133
#
# Disc length: 1667 seconds
#
# Revision: 0
# Processed by: cddbd v1.5.2PL0 Copyright (c) Steve Scherf et al.
# Submitted via: CDex 1.51
#
DISCID=8806810a
DTITLE=Chris Shiflett and The Dead Peasants - All Hat and No Cattle
DYEAR=2013
DGENRE=Country
TTITLE0=Guitar Pickin' Man
TTITLE1=Good Time Charlies
TTITLE2=Pop A Top
TTITLE3=Happy Part Of Town
TTITLE4=Skid Row
TTITLE5=Live Fast, Die Hard, Die Young
TTITLE6=Playboy
TTITLE7=King Of Fools
TTITLE8=A Woman Like You
TTITLE9=Are You Sure Hank Done It This Way?
EXTD=YEAR: 2013
EXTT0=
EXTT1=
EXTT2=
EXTT3=
EXTT4=
EXTT5=
EXTT6=
EXTT7=
EXTT8=
EXTT9=
PLAYORDER=
